<svg xmlns="http://www.w3.org/2000/svg" width="14" height="17" viewBox="0 0 14 17">
  <path fill-rule="evenodd" d="M12.79 2h-2.36V.53A.541.541 0 0 0 9.87 0a.085.085 0 0 0-.06.02.076.076 0 0 0-.04-.02H4.13a.532.532 0 0 0-.55.53V2H1.21A1.173 1.173 0 0 0 0 3.16v1.9h1.05v10.79A1.156 1.156 0 0 0 2.25 17h9.5a1.164 1.164 0 0 0 1.21-1.15V5.06H14v-1.9A1.173 1.173 0 0 0 12.79 2zm-8.11-.95h4.64V2H4.68v-.95zm7.17 14.8a.086.086 0 0 1-.1.1h-9.5a.086.086 0 0 1-.1-.1V5.06h9.7v10.79zM12.89 4H1.11v-.84a.086.086 0 0 1 .1-.1h11.58a.086.086 0 0 1 .1.1V4zM9.01 6.29h1.11v8.72H9.01V6.29zm-2.55 0h1.1v8.72h-1.1V6.29zm-2.56 0h1.11v8.72H3.9V6.29z"/>
</svg>
