<svg xmlns="http://www.w3.org/2000/svg" width="18" height="18" viewBox="0 0 18 18">
  <path fill-rule="evenodd" d="M8.76 8.536H.7a.7.7 0 0 0-.7.7V17.3a.7.7 0 0 0 .7.7h8.06a.7.7 0 0 0 .7-.7V9.238a.7.7 0 0 0-.7-.702zm-.7 8.062H1.4v-6.66h6.66v6.66zm9.24-16.6H.7a.7.7 0 0 0-.7.7v6.51a.7.7 0 1 0 1.4 0V1.4h15.2v15.2h-5.79a.7.7 0 0 0 0 1.4h6.49a.7.7 0 0 0 .7-.7V.7a.7.7 0 0 0-.7-.7zm-6.53 7.456a.689.689 0 0 0 .49.2.712.712 0 0 0 .5-.2l2.21-2.215v1.008a.705.705 0 0 0 1.41 0V3.7c0-.025-.01-.05-.01-.074a.7.7 0 0 0-.74-.775H12.03a.7.7 0 0 0 0 1.4h.95l-2.21 2.216a.69.69 0 0 0 0 .989z"/>
</svg>
