<svg xmlns="http://www.w3.org/2000/svg" width="24" height="24" viewBox="0 0 24 24">
  <path d="M23.5 11.3l-2.9-7C19.1.7 15-1 11.3.5L4.4 3.4C.8 4.9-1 9.1.5 12.7l2.9 7c1.5 3.6 5.6 5.3 9.3 3.8l6.9-2.9c3.6-1.5 5.4-5.7 3.9-9.3zm-4.6 7.4L12 21.6c-.7.3-1.4.4-2 .4-2.1 0-3.9-1.2-4.7-3.1l-2.9-7c-1.1-2.6.1-5.6 2.7-6.6L12 2.4c.7-.3 1.4-.4 2-.4 2.1 0 3.9 1.2 4.7 3.1l2.9 7c1.1 2.6-.1 5.6-2.7 6.6zm.8-6.1l-.8-1.8-3.1 1.2-1.2-2.8L17.8 8 17 6.1l-3.1 1.3-1.3-3.1-1.8.8 1.3 3.1-2.8 1.1L8 6.2 6.2 7l1.3 3.1-3.1 1.3.8 1.8 3.1-1.3 1.2 2.8L6.2 16l.8 1.8 3.1-1.3 1.3 3.1 1.8-.8-1.2-3 2.8-1.1 1.3 3.1 1.8-.8-1.3-3.1 3.1-1.3zM11.2 14L10 11.2l2.8-1.1 1.2 2.8-2.8 1.1z"/>
</svg>
