<svg xmlns="http://www.w3.org/2000/svg" width="16" height="14" viewBox="0 0 16 14">
  <path fill-rule="evenodd" d="M15.46 6.35a1.811 1.811 0 0 0-1.31-.52h-.61V3.5a2.152 2.152 0 0 0-.19-.8 2.362 2.362 0 0 0-.46-.7L11.42.62a2.211 2.211 0 0 0-.73-.44A2.355 2.355 0 0 0 9.85 0H3.38a.914.914 0 0 0-.65.25.826.826 0 0 0-.27.62v4.96h-.61a1.827 1.827 0 0 0-1.31.52A1.631 1.631 0 0 0 0 7.58v3.8a.283.283 0 0 0 .09.2.294.294 0 0 0 .22.09h2.15v1.46a.826.826 0 0 0 .27.62.914.914 0 0 0 .65.25h9.24a.914.914 0 0 0 .65-.25.826.826 0 0 0 .27-.62v-1.46h2.15a.294.294 0 0 0 .22-.09.283.283 0 0 0 .09-.2v-3.8a1.631 1.631 0 0 0-.54-1.23zm-3.15 6.48H3.69V10.5h8.62v2.33zm0-5.83H3.69V1.17h6.16v1.45a.811.811 0 0 0 .27.62.906.906 0 0 0 .65.26h1.54V7zm2.28.99a.6.6 0 0 1-.44.18.6.6 0 0 1-.43-.18.539.539 0 0 1-.18-.41.57.57 0 0 1 .18-.41.631.631 0 0 1 .43-.17.637.637 0 0 1 .44.17.57.57 0 0 1 .18.41.539.539 0 0 1-.18.41z"/>
</svg>
