<svg xmlns="http://www.w3.org/2000/svg" width="24" height="24" viewBox="0 0 24 24">
  <path fill-rule="evenodd" d="M23.12 10.252l-2.38-.4a8.725 8.725 0 0 0-.75-2.012l1.52-1.887a1.042 1.042 0 0 0-.03-1.357l-.94-1.065a1.059 1.059 0 0 0-1.35-.192l-2.03 1.278a9.022 9.022 0 0 0-3-1.353l-.4-2.391a1.046 1.046 0 0 0-1.04-.877H11.3a1.043 1.043 0 0 0-1.03.877l-.4 2.391a9.018 9.018 0 0 0-2.53 1.049l-1.93-1.38a1.046 1.046 0 0 0-1.35.112L3.05 4.052a1.052 1.052 0 0 0-.11 1.353l1.38 1.937a9.108 9.108 0 0 0-1.04 2.5l-2.4.4A1.048 1.048 0 0 0 0 11.278v1.424a1.047 1.047 0 0 0 .88 1.035l2.4.4a8.9 8.9 0 0 0 .8 2.093l-1.52 1.876a1.055 1.055 0 0 0 .03 1.358l.95 1.064a1.044 1.044 0 0 0 1.34.192l2.07-1.3a8.906 8.906 0 0 0 2.92 1.3l.4 2.39a1.043 1.043 0 0 0 1.03.878h1.42a1.046 1.046 0 0 0 1.04-.878l.4-2.39a8.849 8.849 0 0 0 2.49-1.031l2.02 1.438a1.045 1.045 0 0 0 1.35-.112l1.01-1.007a1.05 1.05 0 0 0 .11-1.352l-1.44-2.011a8.846 8.846 0 0 0 1.05-2.513l2.37-.4a1.047 1.047 0 0 0 .88-1.035v-1.424a1.048 1.048 0 0 0-.88-1.021zM12.04 16.5a4.5 4.5 0 1 1 4.5-4.5 4.5 4.5 0 0 1-4.5 4.5z"/>
</svg>
