<svg xmlns="http://www.w3.org/2000/svg" width="24" height="24" viewBox="0 0 24 24">
  <path fill-rule="evenodd" d="M6.5 6.422h-.3l-.56 2.812h1.42zm11.38 5.625a7.171 7.171 0 0 0 1.15 2.037 7.251 7.251 0 0 0 1.2-2.037h-2.35zm4.01-7.781h-8.73l1.82 14.609a2.191 2.191 0 0 1-.52 1.6L11.37 24h10.52A2.114 2.114 0 0 0 24 21.891V6.422a2.155 2.155 0 0 0-2.11-2.156zm0 7.781h-.19a8.914 8.914 0 0 1-1.69 3.08c.52.472 1.07.859 1.62 1.293a.704.704 0 1 1-.88 1.1c-.6-.471-1.16-.865-1.72-1.379-.56.514-1.07.908-1.67 1.379a.704.704 0 1 1-.88-1.1c.55-.434 1.06-.821 1.57-1.293a8.866 8.866 0 0 1-1.64-3.08h-.19a.703.703 0 0 1 0-1.406h2.11v-.7a.7.7 0 1 1 1.4 0v.7h2.16a.703.703 0 0 1 0 1.406zm-10.44-10.2a2.127 2.127 0 0 0-2.1-1.848H2.11A2.114 2.114 0 0 0 0 2.108v15.563a2.114 2.114 0 0 0 2.11 2.109H13.2a1.059 1.059 0 0 0 .38-.687c0-.076-2.13-17.169-2.13-17.245zM8.62 13.438a.708.708 0 0 1-.83-.551l-.44-2.247H5.36l-.45 2.247a.704.704 0 0 1-1.38-.276L4.94 5.58a.692.692 0 0 1 .68-.565h1.46a.711.711 0 0 1 .69.565l1.4 7.031a.7.7 0 0 1-.55.828zm-.4 7.748l.12.965a2.132 2.132 0 0 0 1.21 1.634c1.33-1.467.53-.579 2.36-2.6H8.22z"/>
</svg>
